<svg width="299" height="303" viewBox="0 0 299 303" xmlns="http://www.w3.org/2000/svg" xmlns:xlink="http://www.w3.org/1999/xlink"><defs><path id="a" d="M0 .476h298.888v301.762H0z"/></defs><g fill="none" fill-rule="evenodd"><mask id="b" fill="#fff"><use xlink:href="#a"/></mask><path d="M241.407 106.705s3.755 28.774-14.49 46.338c-4.89-2.862-10.848-2.426-10.848-2.426s11.986 8.81 13.986 37c0 0 11.397-16.017 8.595-32.312 2.267 1.038 4.217 2.716 5.833 4.54 11.922-36.171-3.076-53.14-3.076-53.14zm-61.105 18.655c.338-4.324 2.912-3.841 5.238-3.479 5.117.795 11.329-1.933 10.45-8.783 5.02.58 6.812 4.19 6.812 4.19-.352-11.176-12.578-14.186-16.273-12.819 0 0-9.479 15.333-16.024 4.12-2.64 5.982 5.097 9.594 9.797 16.77zM128.5 108.588c-6.548 11.214-16.026-4.119-16.026-4.119-3.693-1.367-15.92 1.643-16.272 12.82 0 0 1.79-3.61 6.812-4.191-.88 6.85 5.334 9.578 10.448 8.783 2.328-.362 4.9-.845 5.24 3.479 4.7-7.177 12.438-10.789 9.798-16.772zm-45.676 42.029s-5.955-.436-10.845 2.426c-18.243-17.564-14.49-46.338-14.49-46.338s-14.999 16.969-3.077 53.14c1.617-1.824 3.567-3.502 5.83-4.54-2.8 16.295 8.598 32.312 8.598 32.312 2-28.19 13.984-37 13.984-37zm177.195-44.977c.39.608 19.805 38.1-2.924 82.196l-.005-.02a75.496 75.496 0 0 1-5.757 9.346s-2.36-9.655-7.2-14.779c-1.928 26.27-42.333 44.448-42.333 44.448 31.083-30.295 12.807-60.652 12.807-60.652s2.045 12.1-6.076 21.657c-7.45-32.76-24.917-43.522-24.917-43.522 6.893 9.031 8.357 36.188 7.36 47.936-.664 7.814-6.826 13.626-13.274 13.548-9.012-.11-17.012-4.205-19.314-6.536 0 0 9.826-3.564 12.307-8.138-2.003.374-4.498-7.707 8.676-7.988.931-.312 1.064-.974.748-1.812l.014.002c-4.229-21.514-12.19-23.805-30.629-23.805-18.438 0-26.4 2.29-30.628 23.805l.014-.002c-.317.838-.183 1.5.748 1.812 13.174.28 10.678 8.362 8.676 7.988 2.48 4.574 12.307 8.138 12.307 8.138-2.302 2.33-10.302 6.426-19.317 6.536-6.447.078-12.607-5.734-13.271-13.548-.998-11.748.467-38.905 7.36-47.936 0 0-17.47 10.762-24.92 43.522-8.119-9.557-6.073-21.657-6.073-21.657S66.12 196.536 97.205 226.83c0 0-40.405-18.179-42.334-44.448-4.84 5.124-7.2 14.779-7.2 14.779-2.1-2.9-4.033-6.04-5.757-9.345l-.004.019c-22.729-44.096-3.315-81.588-2.924-82.196-5.493 1.517-7.286 2.777-7.286 2.777s7.093-17.355 16.667-25.467c-3.236-.102-9.381 2.081-9.381 2.081 1.719-5.076 10.693-20.67 21.078-29.276 4.165-4.61-9.376-10.593-14.747-3.917 2.94-13.233 22.96-8.424 22.96-8.424-18.503-15.84-37.103-1.526-35.6 15.836C22.332 31.379 56.58 8.4 87.092 34.517c0 0 20.524-5.629 37.888-2.348-1.39-1.66-5.152-4.469-5.152-4.469 1.585.202 16.11.702 23.266 11.817 0 0-26.616-4.215-40.3 8.321 0 0 17.895-5.921 33.184 2.783 0 0-7.722.834-10.596 3.212 0 0 7.507.677 10.41 3.162-11.776 0-16.226 4.507-16.226 4.507 16.373-.092 28.46 9.603 29.935 11.215 1.477-1.612 13.562-11.307 29.934-11.215 0 0-4.448-4.507-16.224-4.507 2.902-2.485 10.41-3.162 10.41-3.162-2.874-2.378-10.596-3.212-10.596-3.212 15.286-8.704 33.184-2.783 33.184-2.783-13.686-12.536-40.303-8.321-40.303-8.321 7.16-11.115 21.683-11.615 23.27-11.817 0 0-3.763 2.81-5.153 4.469 17.364-3.28 37.888 2.348 37.888 2.348 30.512-26.117 64.757-3.138 54.417 24.733 1.502-17.362-17.1-31.676-35.6-15.836 0 0 20.019-4.81 22.96 8.424-5.372-6.676-18.915-.693-14.749 3.917 10.386 8.607 19.36 24.2 21.079 29.276 0 0-6.145-2.183-9.383-2.081 9.576 8.112 16.669 25.467 16.669 25.467s-1.793-1.26-7.286-2.777zm-78.017 114.231c1.138-.39 2.2.772 1.693 1.896-3.966 8.821-3.912 20.069-10.985 26.964-7.991 7.788-14.153 7.548-14.153 7.548.595-2.265.445-5.067-1.086-6.396-1.295 4.429-5.373 8.529-10.397 10.596 2.074-5.612-4.822-8.54-5.824-9.212l-.076.01c.336.623 2.278 4.523-.05 7.083-3.381-5.079-6.74-2.12-11.162-5.265-11.183-4.535-10.579-21.416-15.226-31.214-.534-1.126.538-2.343 1.685-1.929 4.365 1.577 6.712 4.622 7.677 8.974 1.983 8.967 15.123 11.895 25.002 11.895 9.876 0 23.014-2.928 25-11.895.981-4.428 3.39-7.502 7.902-9.055z" fill="#F4B740" mask="url(#b)"/><path d="M182.145 114.736a3.098 3.098 0 0 0 3.067 2.054 3.105 3.105 0 0 0 2.945-3.259 3.102 3.102 0 0 0-1.614-2.56 8.972 8.972 0 0 1-4.398 3.765zm-69.683-3.765a3.091 3.091 0 0 0-1.614 2.56 3.104 3.104 0 0 0 2.945 3.26 3.098 3.098 0 0 0 3.067-2.055 8.972 8.972 0 0 1-4.398-3.765zm25.188 113.96c3.081 1.048 7.005 1.771 11.552 1.771 4.553 0 8.438-.728 11.47-1.776.209-.707.752-1.336 1.702-1.721 2.39-.965 6.845-4.831 7.462-7.822.1-.493 1.116-.521 1.316-.038 3.029 7.281-1.469 13.193-5.38 13.503-2.943.233-4.946-1.02-5.177-2.886-1.316 1.145-2.002 2.688-2.212 4.078-2.78.598-5.845.939-9.08.939-3.234 0-6.315-.334-9.124-.929a7.16 7.16 0 0 0-2.405-4.088c-.143 1.867-2.06 3.112-5.04 2.886-3.963-.3-8.546-6.222-5.91-13.503.174-.483 1.19-.455 1.319.038.778 2.99 5.286 6.857 7.721 7.822.972.385 1.543 1.019 1.786 1.726zm35.186-52.286c-5.205-8.75-16.929-6.085-23.929-3.46-7-2.625-18.724-5.29-23.928 3.46 6.85-6.976 20.8 1.986 23.928 1.986 3.129 0 17.081-8.962 23.929-1.986zM244.048.476c-10.808 0-21.743 3.184-31.855 9.24-8.603-2.54-19.372-4.018-29.667-4.018-3.878 0-7.662.202-11.321.602a7.973 7.973 0 0 0-5.622-2.021c-.285.01-.564.035-.84.073-5.92.765-11.34 2.95-15.298 4.767-3.99-1.83-9.466-4.038-15.44-4.783a7.997 7.997 0 0 0-6.317 1.964 104.41 104.41 0 0 0-11.326-.602c-10.293 0-21.062 1.478-29.667 4.019C76.583 3.66 65.648.477 54.843.477c-17.288 0-32.593 8.285-40.94 22.161C9 30.788 6.647 40.662 7.1 51.195c.424 9.903 3.24 20.336 8.381 31.07-2.971 5.252-5.229 10.566-5.348 10.847a8.01 8.01 0 0 0 .296 6.86c-3.74 7.966-8.715 21.02-10.384 36.78a7.997 7.997 0 0 0 1.82 5.979C.37 156.038.95 169.164 3.6 181.864c4.162 19.94 13.379 38.24 27.398 54.39a8 8 0 0 0 8.271 2.441c8.552 8.095 25.902 20.257 60.152 32.595a7.984 7.984 0 0 0 2.258.46c5.119 7.912 11.414 11.31 17.135 14.4 5.138 2.774 9.574 5.169 14.031 11.005a8 8 0 0 0 6.343 3.145h.02a7.982 7.982 0 0 0 3.104-.626 7.998 7.998 0 0 0 10.29 1.462c1.777-1.126 3.79-2.496 5.767-4.138a7.982 7.982 0 0 0 5.29-.095c20.82-7.713 26.63-16.203 31.955-25.184a8.012 8.012 0 0 0 3.548-.429c34.34-12.371 51.783-24.545 60.388-32.614.088.026.179.05.269.074a8.008 8.008 0 0 0 8.074-2.495c14.017-16.15 23.233-34.45 27.395-54.39 2.65-12.7 3.231-25.827 1.736-39.134a8.008 8.008 0 0 0 1.821-5.979c-1.671-15.764-6.647-28.821-10.388-36.788a8.003 8.003 0 0 0 .3-6.852c-.119-.279-2.378-5.595-5.347-10.848 5.14-10.733 7.957-21.169 8.38-31.071.453-10.533-1.9-20.407-6.802-28.557C276.64 8.76 261.336.476 244.048.476zm0 8.005c30.552 0 53.6 30.045 30.212 74.15 3.738 5.59 7.123 13.6 7.123 13.6s-2.071-.448-3.462-.448c-.264 0-.502.017-.7.055 0 0 11.089 17.47 13.662 41.757l-2.98-2.007c4.497 25.279 2.985 61.96-26.055 95.42-.803-3.896-1.715-5.275-1.715-5.275s-9.102 18.365-63.685 38.024c0 0-.329-1.2-2.717-4.28-8.376 12.463-9.057 21.104-32.852 29.92.697-2.428.564-5.39-1.353-6.933-1.624 5.136-6.721 9.062-11.212 11.912.522-5.55-7.202-11.074-7.202-11.074s1.357 4.765-1.905 8.993c-12.805-16.762-26.805-11.252-34.664-32.838-2.388 3.081-2.41 4.3-2.41 4.3-54.583-19.66-63.376-38.024-63.376-38.024s-.914 1.379-1.714 5.274c-29.04-33.46-30.555-70.14-26.057-95.419l-2.981 2.007c2.574-24.288 13.662-41.757 13.662-41.757a3.779 3.779 0 0 0-.7-.055c-1.39 0-3.46.448-3.46.448s3.386-8.01 7.124-13.6c-23.388-44.1-.338-74.15 30.212-74.15 9.902 0 20.593 3.157 30.745 10.017 7.379-2.681 18.707-4.796 30.774-4.796 6.017 0 12.214.527 18.198 1.767a34.453 34.453 0 0 1-1.55-3.19c6.616.826 12.816 3.976 16.435 5.695 3.617-1.72 9.817-4.87 16.434-5.695 0 0-.662 1.6-1.55 3.19 5.983-1.24 12.183-1.767 18.197-1.767 12.07 0 23.398 2.115 30.774 4.796C223.45 11.64 234.145 8.48 244.048 8.48z" fill="#FFFFFE" mask="url(#b)"/><path d="M71.979 153.043c-18.243-17.564-14.49-46.338-14.49-46.338s-14.999 16.969-3.077 53.14c1.617-1.824 3.567-3.502 5.83-4.54-2.8 16.295 8.598 32.312 8.598 32.312 2-28.19 13.984-37 13.984-37s-5.955-.436-10.845 2.426zm44.88-38.307a8.972 8.972 0 0 1-4.397-3.765 3.091 3.091 0 0 0-1.614 2.56 3.104 3.104 0 0 0 2.945 3.26 3.098 3.098 0 0 0 3.067-2.055zm11.641-6.148c2.64 5.983-5.098 9.595-9.798 16.772-.34-4.324-2.912-3.841-5.24-3.479-5.114.795-11.329-1.933-10.448-8.783-5.021.58-6.812 4.19-6.812 4.19.353-11.176 12.579-14.186 16.274-12.819 0 0 9.476 15.333 16.024 4.12zM266.329 59.25c10.34-27.871-23.905-50.85-54.417-24.733 0 0-20.524-5.629-37.888-2.348 1.39-1.66 5.152-4.469 5.152-4.469-1.586.202-16.11.702-23.269 11.817 0 0 26.617-4.215 40.303 8.321 0 0-17.898-5.921-33.184 2.783 0 0 7.722.834 10.595 3.212 0 0-7.507.677-10.41 3.162 11.777 0 16.225 4.507 16.225 4.507-16.372-.092-28.457 9.603-29.934 11.215-1.476-1.612-13.562-11.307-29.935-11.215 0 0 4.45-4.507 16.226-4.507-2.903-2.485-10.41-3.162-10.41-3.162 2.874-2.378 10.596-3.212 10.596-3.212-15.289-8.704-33.184-2.783-33.184-2.783 13.684-12.536 40.3-8.321 40.3-8.321-7.157-11.115-21.68-11.615-23.266-11.817 0 0 3.761 2.81 5.152 4.469-17.364-3.28-37.888 2.348-37.888 2.348C56.58 8.4 22.333 31.379 32.676 59.25c-1.502-17.362 17.098-31.676 35.6-15.836 0 0-20.019-4.81-22.96 8.424 5.372-6.676 18.913-.693 14.748 3.917-10.385 8.607-19.36 24.2-21.078 29.276 0 0 6.145-2.183 9.38-2.081-9.573 8.11-16.666 25.467-16.666 25.467s1.793-1.26 7.286-2.777c-.39.608-19.805 38.1 2.924 82.196l.004-.02a75.496 75.496 0 0 0 5.757 9.346s2.36-9.655 7.2-14.781c1.929 26.271 42.334 44.45 42.334 44.45-31.084-30.295-12.807-60.652-12.807-60.652s-2.046 12.1 6.073 21.657c7.45-32.76 24.92-43.522 24.92-43.522-6.893 9.031-8.358 36.188-7.36 47.936.664 7.814 6.824 13.626 13.271 13.548 9.015-.11 17.015-4.205 19.317-6.536 0 0-9.826-3.564-12.307-8.138 2.002.374 4.498-7.707-8.676-7.988-.931-.312-1.065-.974-.748-1.812l-.014.002c4.228-21.514 12.19-23.805 30.628-23.805 18.438 0 26.4 2.29 30.629 23.805l-.014-.002c.316.838.183 1.5-.748 1.812-13.174.28-10.679 8.362-8.676 7.988-2.481 4.574-12.307 8.138-12.307 8.138 2.302 2.33 10.302 6.426 19.314 6.536 6.448.078 12.61-5.734 13.274-13.548.997-11.748-.467-38.905-7.36-47.936 0 0 17.467 10.762 24.917 43.522 8.121-9.557 6.076-21.657 6.076-21.657s18.276 30.357-12.807 60.652c0 0 40.405-18.179 42.333-44.45 4.84 5.126 7.2 14.78 7.2 14.78 2.1-2.9 4.034-6.04 5.757-9.344l.005.019c22.729-44.096 3.315-81.588 2.924-82.196 5.493 1.517 7.286 2.777 7.286 2.777s-7.093-17.357-16.67-25.467c3.239-.102 9.384 2.081 9.384 2.081-1.719-5.076-10.693-20.67-21.079-29.276-4.166-4.61 9.377-10.593 14.748-3.917-2.94-13.233-22.96-8.424-22.96-8.424 18.5-15.84 37.103-1.526 35.6 15.836zm-93.493 113.395c-5.205-8.75-16.929-6.085-23.929-3.46-7-2.625-18.724-5.29-23.928 3.46 6.85-6.976 20.8 1.986 23.928 1.986 3.129 0 17.081-8.962 23.929-1.986zm-35.186 52.286c-.243-.707-.814-1.34-1.786-1.726-2.435-.965-6.943-4.831-7.721-7.822-.129-.493-1.145-.521-1.32-.038-2.635 7.281 1.948 13.203 5.91 13.503 2.981.226 4.898-1.02 5.04-2.886a7.16 7.16 0 0 1 2.406 4.088c2.81.595 5.89.929 9.123.929 3.236 0 6.3-.34 9.081-.939.21-1.39.896-2.933 2.212-4.078.231 1.867 2.234 3.119 5.176 2.886 3.912-.31 8.41-6.222 5.381-13.503-.2-.483-1.216-.455-1.316.038-.617 2.99-5.072 6.857-7.462 7.822-.95.385-1.493 1.014-1.703 1.721-3.03 1.048-6.916 1.776-11.469 1.776-4.547 0-8.471-.723-11.552-1.771zm44.352-5.06c-4.512 1.553-6.923 4.627-7.902 9.055-1.986 8.967-15.124 11.895-25.002 11.895-9.877 0-23.017-2.928-25-11.895-.965-4.352-3.312-7.397-7.677-8.974-1.147-.414-2.219.803-1.685 1.929 4.647 9.798 4.043 26.679 15.226 31.214 4.421 3.145 7.78.186 11.162 5.265 2.328-2.56.386-6.46.05-7.084l.076-.01c1.002.674 7.898 3.6 5.824 9.213 5.024-2.067 9.102-6.167 10.397-10.596 1.531 1.329 1.681 4.131 1.086 6.396 0 0 6.162.24 14.153-7.548 7.073-6.895 7.019-18.143 10.985-26.964.507-1.124-.555-2.286-1.693-1.896zm105.9-84.283c4.498 25.279 2.986 61.96-26.054 95.42-.803-3.896-1.715-5.275-1.715-5.275s-9.102 18.365-63.685 38.024c0 0-.329-1.2-2.717-4.28-8.376 12.463-9.057 21.104-32.852 29.92.697-2.428.564-5.39-1.353-6.933-1.624 5.136-6.721 9.062-11.212 11.912.522-5.55-7.202-11.074-7.202-11.074s1.357 4.765-1.905 8.993c-12.805-16.762-26.805-11.252-34.664-32.838-2.388 3.081-2.41 4.3-2.41 4.3-54.583-19.66-63.376-38.024-63.376-38.024s-.914 1.379-1.714 5.274c-29.04-33.46-30.555-70.14-26.057-95.419l-2.981 2.007c2.574-24.288 13.662-41.757 13.662-41.757-1.229-.24-4.16.393-4.16.393s3.386-8.01 7.124-13.6C-6.34 24.236 44.117-9.524 85.588 18.498c11.055-4.02 30.981-6.76 48.972-3.029a35.185 35.185 0 0 1-1.55-3.19c6.616.826 12.816 3.976 16.435 5.695 3.617-1.72 9.817-4.87 16.434-5.695 0 0-.662 1.6-1.55 3.19 17.99-3.73 37.916-.99 48.971 3.029 41.474-28.022 91.929 5.738 60.96 64.133 3.738 5.59 7.123 13.6 7.123 13.6s-2.933-.633-4.162-.393c0 0 11.089 17.47 13.662 41.757l-2.98-2.007zm-99.745-22.057a3.102 3.102 0 0 0-1.614-2.56 8.972 8.972 0 0 1-4.398 3.765 3.098 3.098 0 0 0 3.067 2.054 3.105 3.105 0 0 0 2.945-3.259zm14.645 3.757s-1.792-3.61-6.814-4.19c.881 6.85-5.33 9.578-10.448 8.783-2.326-.362-4.9-.845-5.238 3.479-4.7-7.177-12.438-10.789-9.797-16.772 6.545 11.214 16.024-4.119 16.024-4.119 3.695-1.367 15.921 1.643 16.273 12.82zm24.115 35.755c18.245-17.564 14.49-46.338 14.49-46.338s14.998 16.969 3.076 53.14c-1.616-1.824-3.566-3.502-5.83-4.54 2.8 16.295-8.598 32.312-8.598 32.312-2-28.19-13.986-37-13.986-37s5.957-.436 10.848 2.426z" fill="#042546" mask="url(#b)"/></g></svg>